<?xml version="1.0" standalone="no"?><!DOCTYPE svg PUBLIC "-//W3C//DTD SVG 1.1//EN" "http://www.w3.org/Graphics/SVG/1.1/DTD/svg11.dtd"><svg t="1577001047170" class="icon" viewBox="0 0 1280 1024" version="1.1" xmlns="http://www.w3.org/2000/svg" p-id="30510" xmlns:xlink="http://www.w3.org/1999/xlink" width="500" height="400"><defs><style type="text/css"></style></defs><path d="M1184 1024H96c-52.928 0-96-43.072-96-96V96c0-52.928 43.072-96 96-96h1088c52.928 0 96 43.072 96 96v832c0 52.928-43.072 96-96 96zM128 128v768l297.376-297.376a32.096 32.096 0 0 1 45.248 0L576 704 1152 128H128z m224 320a96 96 0 1 1 0-192 96 96 0 0 1 0 192z" p-id="30511"></path></svg>