<?xml version="1.0" standalone="no"?><!DOCTYPE svg PUBLIC "-//W3C//DTD SVG 1.1//EN" "http://www.w3.org/Graphics/SVG/1.1/DTD/svg11.dtd"><svg t="1577005044690" class="icon" viewBox="0 0 1024 1024" version="1.1" xmlns="http://www.w3.org/2000/svg" p-id="32774" xmlns:xlink="http://www.w3.org/1999/xlink" width="400" height="400"><defs><style type="text/css"></style></defs><path d="M733.4 590.3c-44.8 0-85.1 19.7-112.7 51l-185-90c3.3-12.3 5-25.2 5-38.4 0-19.5-3.7-38.2-10.5-55.3l179.5-87.3c27.1 39.3 72.5 65.2 123.7 65.2 82.8 0 150.2-67.4 150.2-150.2 0-82.8-67.4-150.2-150.2-150.2s-150.2 67.4-150.2 150.2c0 5.9 0.3 11.6 1 17.3l-196.7 95.7c-26.2-22.2-60-35.6-97-35.6-82.8 0-150.2 67.4-150.2 150.2 0 82.8 67.4 150.2 150.2 150.2 43.7 0 83-18.7 110.5-48.6l186.4 90.7c-2.7 11.3-4.2 23.2-4.2 35.3 0 82.8 67.4 150.2 150.2 150.2s150.2-67.4 150.2-150.2-67.4-150.2-150.2-150.2z m0-383.3c43.1 0 78.2 35.1 78.2 78.2s-35.1 78.2-78.2 78.2-78.2-35.1-78.2-78.2 35-78.2 78.2-78.2zM290.5 591c-43.1 0-78.2-35.1-78.2-78.2s35.1-78.2 78.2-78.2 78.2 35.1 78.2 78.2-35.1 78.2-78.2 78.2z m442.9 227.7c-43.1 0-78.2-35.1-78.2-78.2s35.1-78.2 78.2-78.2 78.2 35.1 78.2 78.2-35.1 78.2-78.2 78.2z" p-id="32775"></path></svg>